<svg xmlns="http://www.w3.org/2000/svg" viewBox="0 0 1000 780" font-family="Helvetica, Arial, sans-serif">
  <defs>
    <marker id="arr" markerWidth="8" markerHeight="6" refX="8" refY="3" orient="auto">
      <path d="M0,0 L8,3 L0,6 Z" fill="#374151"/>
    </marker>
    <marker id="arr-r" markerWidth="8" markerHeight="6" refX="8" refY="3" orient="auto">
      <path d="M0,0 L8,3 L0,6 Z" fill="#DC2626"/>
    </marker>
  </defs>

  <!-- ====== TITLE ====== -->
  <text x="500" y="24" text-anchor="middle" font-size="15" font-weight="bold" fill="#111827">Two-Stage Framework: Structured Delphi Debate + Learned Sparse GAT</text>

  <!-- ====================================================== -->
  <!-- STAGE 1: Multi-Agent Structured Delphi Debate          -->
  <!-- ====================================================== -->
  <rect x="15" y="40" width="970" height="330" rx="10" fill="#DBEAFE" stroke="#3B82F6" stroke-width="1.5"/>
  <text x="500" y="60" text-anchor="middle" font-size="13" font-weight="bold" fill="#1E40AF">Stage 1: Multi-Agent Structured Delphi Debate</text>

  <!-- ====== Panel (a): Debate Protocol ====== -->
  <rect x="25" y="70" width="462" height="290" rx="8" fill="#D1FAE5" stroke="#34D399" stroke-width="1.2"/>
  <text x="42" y="89" font-size="11" font-weight="bold" fill="#065F46">(a) Structured Delphi Debate Protocol</text>

  <!-- Data Inputs row -->
  <rect x="45" y="98" width="120" height="24" rx="4" fill="#fff" stroke="#34D399" stroke-width="0.8"/>
  <text x="105" y="114" text-anchor="middle" font-size="8.5" font-weight="bold" fill="#1F2937">Market Data</text>
  <rect x="175" y="98" width="120" height="24" rx="4" fill="#fff" stroke="#34D399" stroke-width="0.8"/>
  <text x="235" y="114" text-anchor="middle" font-size="8.5" font-weight="bold" fill="#1F2937">GDELT Events</text>
  <rect x="305" y="98" width="120" height="24" rx="4" fill="#fff" stroke="#34D399" stroke-width="0.8"/>
  <text x="365" y="114" text-anchor="middle" font-size="8.5" font-weight="bold" fill="#1F2937">Historical Vol</text>
  <!-- small labels -->
  <text x="105" y="127" text-anchor="middle" font-size="7" fill="#6B7280">WTI, VIX, DXY</text>
  <text x="235" y="127" text-anchor="middle" font-size="7" fill="#6B7280">geopolitical signals</text>
  <text x="365" y="127" text-anchor="middle" font-size="7" fill="#6B7280">persistence, HAR</text>

  <!-- Arrow down to agents -->
  <line x1="256" y1="128" x2="256" y2="142" stroke="#374151" stroke-width="1" marker-end="url(#arr)"/>

  <!-- 7 Agent boxes -->
  <rect x="42" y="148" width="55" height="26" rx="4" fill="#fff" stroke="#059669" stroke-width="0.8"/>
  <text x="69" y="165" text-anchor="middle" font-size="8" font-weight="bold" fill="#1F2937">Geo</text>
  <rect x="102" y="148" width="55" height="26" rx="4" fill="#fff" stroke="#059669" stroke-width="0.8"/>
  <text x="129" y="165" text-anchor="middle" font-size="8" font-weight="bold" fill="#1F2937">Mac</text>
  <rect x="162" y="148" width="55" height="26" rx="4" fill="#fff" stroke="#059669" stroke-width="0.8"/>
  <text x="189" y="165" text-anchor="middle" font-size="8" font-weight="bold" fill="#1F2937">Mon</text>
  <rect x="222" y="148" width="55" height="26" rx="4" fill="#fff" stroke="#059669" stroke-width="0.8"/>
  <text x="249" y="165" text-anchor="middle" font-size="8" font-weight="bold" fill="#1F2937">Sup</text>
  <rect x="282" y="148" width="55" height="26" rx="4" fill="#fff" stroke="#059669" stroke-width="0.8"/>
  <text x="309" y="165" text-anchor="middle" font-size="8" font-weight="bold" fill="#1F2937">Tec</text>
  <rect x="342" y="148" width="55" height="26" rx="4" fill="#fff" stroke="#059669" stroke-width="0.8"/>
  <text x="369" y="165" text-anchor="middle" font-size="8" font-weight="bold" fill="#1F2937">Sen</text>
  <rect x="402" y="148" width="55" height="26" rx="4" fill="#fff" stroke="#059669" stroke-width="0.8"/>
  <text x="429" y="165" text-anchor="middle" font-size="8" font-weight="bold" fill="#1F2937">Crs</text>

  <!-- Round 1 -->
  <line x1="256" y1="174" x2="256" y2="190" stroke="#374151" stroke-width="1" marker-end="url(#arr)"/>
  <rect x="95" y="195" width="320" height="24" rx="5" fill="#A7F3D0" stroke="#059669" stroke-width="0.8"/>
  <text x="255" y="211" text-anchor="middle" font-size="9" fill="#065F46">Round 1: Independent Forecasts</text>

  <!-- Inter-agent communication -->
  <line x1="95" y1="227" x2="415" y2="227" stroke="#DC2626" stroke-width="0.8" stroke-dasharray="4,3"/>
  <path d="M95,224 L88,227 L95,230" fill="none" stroke="#DC2626" stroke-width="0.8"/>
  <path d="M415,224 L422,227 L415,230" fill="none" stroke="#DC2626" stroke-width="0.8"/>
  <text x="255" y="238" text-anchor="middle" font-size="8" fill="#DC2626" font-style="italic">inter-agent communication</text>

  <!-- Round 2 -->
  <line x1="256" y1="243" x2="256" y2="254" stroke="#374151" stroke-width="1" marker-end="url(#arr)"/>
  <rect x="95" y="258" width="320" height="24" rx="5" fill="#6EE7B7" stroke="#059669" stroke-width="0.8"/>
  <text x="255" y="274" text-anchor="middle" font-size="9" fill="#065F46">Round 2: Revised Forecasts</text>

  <!-- Stage 1 Outputs -->
  <line x1="256" y1="282" x2="256" y2="297" stroke="#374151" stroke-width="1" marker-end="url(#arr)"/>
  <rect x="50" y="302" width="115" height="22" rx="4" fill="#065F46"/>
  <text x="107" y="317" text-anchor="middle" font-size="8.5" font-weight="bold" fill="#fff">debate_vol</text>
  <rect x="175" y="302" width="115" height="22" rx="4" fill="#065F46"/>
  <text x="232" y="317" text-anchor="middle" font-size="8.5" font-weight="bold" fill="#fff">single_vol</text>
  <rect x="300" y="302" width="130" height="22" rx="4" fill="#065F46"/>
  <text x="365" y="317" text-anchor="middle" font-size="8.5" font-weight="bold" fill="#fff">Agent Features</text>

  <!-- Arrow from Agent Features to panel (b) -->
  <line x1="430" y1="313" x2="498" y2="313" stroke="#374151" stroke-width="1" stroke-dasharray="3,3" marker-end="url(#arr)"/>

  <!-- ====== Panel (b): Attribution & Feature Extraction ====== -->
  <rect x="502" y="70" width="468" height="290" rx="8" fill="#FCE7F3" stroke="#F472B6" stroke-width="1.2"/>
  <text x="520" y="89" font-size="11" font-weight="bold" fill="#9D174D">(b) Attribution & Feature Extraction</text>

  <!-- Shapley Attribution - mini bar chart -->
  <text x="520" y="110" font-size="9" font-weight="bold" fill="#4B5563">Shapley Attribution</text>
  <g transform="translate(525, 116)">
    <rect x="0" y="0" width="72" height="7" rx="2" fill="#F9A8D4"/><text x="77" y="7" font-size="6.5" fill="#6B7280">Geo</text>
    <rect x="0" y="10" width="58" height="7" rx="2" fill="#F9A8D4"/><text x="63" y="17" font-size="6.5" fill="#6B7280">Mac</text>
    <rect x="0" y="20" width="88" height="7" rx="2" fill="#F9A8D4"/><text x="93" y="27" font-size="6.5" fill="#6B7280">Mon</text>
    <rect x="0" y="30" width="50" height="7" rx="2" fill="#F9A8D4"/><text x="55" y="37" font-size="6.5" fill="#6B7280">Sup</text>
    <rect x="0" y="40" width="100" height="7" rx="2" fill="#F9A8D4"/><text x="105" y="47" font-size="6.5" fill="#6B7280">Tec</text>
    <rect x="0" y="50" width="65" height="7" rx="2" fill="#F9A8D4"/><text x="70" y="57" font-size="6.5" fill="#6B7280">Sen</text>
    <rect x="0" y="60" width="92" height="7" rx="2" fill="#F9A8D4"/><text x="97" y="67" font-size="6.5" fill="#6B7280">Crs</text>
  </g>

  <!-- Behavior Labels -->
  <text x="710" y="110" font-size="9" font-weight="bold" fill="#4B5563">Behavior Labels</text>
  <rect x="710" y="117" width="85" height="18" rx="9" fill="#FCA5A5"/>
  <text x="752" y="130" text-anchor="middle" font-size="7.5" fill="#7F1D1D">Herding</text>
  <rect x="710" y="140" width="85" height="18" rx="9" fill="#93C5FD"/>
  <text x="752" y="153" text-anchor="middle" font-size="7.5" fill="#1E3A5F">Anchoring</text>
  <rect x="710" y="163" width="85" height="18" rx="9" fill="#86EFAC"/>
  <text x="752" y="176" text-anchor="middle" font-size="7.5" fill="#14532D">Independent</text>

  <!-- Communication Graph visualization -->
  <text x="520" y="200" font-size="9" font-weight="bold" fill="#4B5563">Communication Graph</text>
  <!-- 7 nodes in circle, center=(620, 245), r=35 -->
  <!-- Edges (sparse selection) -->
  <g opacity="0.5">
    <line x1="620" y1="210" x2="649" y2="221" stroke="#F472B6" stroke-width="0.8"/>
    <line x1="620" y1="210" x2="591" y2="221" stroke="#F472B6" stroke-width="0.8"/>
    <line x1="649" y1="221" x2="654" y2="249" stroke="#F472B6" stroke-width="0.8"/>
    <line x1="591" y1="221" x2="586" y2="249" stroke="#F472B6" stroke-width="0.8"/>
    <line x1="654" y1="249" x2="641" y2="271" stroke="#F472B6" stroke-width="0.8"/>
    <line x1="586" y1="249" x2="599" y2="271" stroke="#F472B6" stroke-width="0.8"/>
    <line x1="591" y1="221" x2="649" y2="221" stroke="#F472B6" stroke-width="0.8"/>
    <line x1="586" y1="249" x2="654" y2="249" stroke="#F472B6" stroke-width="0.8"/>
    <line x1="620" y1="210" x2="654" y2="249" stroke="#F472B6" stroke-width="0.8"/>
    <line x1="599" y1="271" x2="641" y2="271" stroke="#F472B6" stroke-width="0.8"/>
  </g>
  <!-- Nodes -->
  <circle cx="620" cy="210" r="9" fill="#fff" stroke="#F472B6" stroke-width="1.2"/>
  <text x="620" y="213" text-anchor="middle" font-size="6" fill="#1F2937">G</text>
  <circle cx="649" cy="221" r="9" fill="#fff" stroke="#F472B6" stroke-width="1.2"/>
  <text x="649" y="224" text-anchor="middle" font-size="6" fill="#1F2937">M</text>
  <circle cx="654" cy="249" r="9" fill="#fff" stroke="#F472B6" stroke-width="1.2"/>
  <text x="654" y="252" text-anchor="middle" font-size="6" fill="#1F2937">Mo</text>
  <circle cx="641" cy="271" r="9" fill="#fff" stroke="#F472B6" stroke-width="1.2"/>
  <text x="641" y="274" text-anchor="middle" font-size="6" fill="#1F2937">S</text>
  <circle cx="599" cy="271" r="9" fill="#fff" stroke="#F472B6" stroke-width="1.2"/>
  <text x="599" y="274" text-anchor="middle" font-size="6" fill="#1F2937">T</text>
  <circle cx="586" cy="249" r="9" fill="#fff" stroke="#F472B6" stroke-width="1.2"/>
  <text x="586" y="252" text-anchor="middle" font-size="6" fill="#1F2937">Se</text>
  <circle cx="591" cy="221" r="9" fill="#fff" stroke="#F472B6" stroke-width="1.2"/>
  <text x="591" y="224" text-anchor="middle" font-size="6" fill="#1F2937">C</text>

  <!-- Influence labels -->
  <text x="820" y="200" font-size="9" font-weight="bold" fill="#4B5563">Influence Metrics</text>
  <rect x="820" y="208" width="130" height="22" rx="4" fill="#fff" stroke="#F472B6" stroke-width="0.8"/>
  <text x="885" y="223" text-anchor="middle" font-size="8" fill="#4B5563">Shapley values</text>
  <rect x="820" y="236" width="130" height="22" rx="4" fill="#fff" stroke="#F472B6" stroke-width="0.8"/>
  <text x="885" y="251" text-anchor="middle" font-size="8" fill="#4B5563">Myerson values</text>
  <rect x="820" y="264" width="130" height="22" rx="4" fill="#fff" stroke="#F472B6" stroke-width="0.8"/>
  <text x="885" y="279" text-anchor="middle" font-size="8" fill="#4B5563">Degree centrality</text>

  <!-- Output: features -->
  <line x1="735" y1="282" x2="735" y2="298" stroke="#374151" stroke-width="1" marker-end="url(#arr)"/>
  <rect x="530" y="304" width="130" height="22" rx="4" fill="#9D174D"/>
  <text x="595" y="319" text-anchor="middle" font-size="8.5" font-weight="bold" fill="#fff">Node Features</text>
  <rect x="675" y="304" width="140" height="22" rx="4" fill="#9D174D"/>
  <text x="745" y="319" text-anchor="middle" font-size="8.5" font-weight="bold" fill="#fff">Context Features</text>
  <rect x="830" y="304" width="120" height="22" rx="4" fill="#9D174D"/>
  <text x="890" y="319" text-anchor="middle" font-size="8.5" font-weight="bold" fill="#fff">Base Preds</text>

  <!-- ====== STAGE 1 → STAGE 2 Transition ====== -->
  <line x1="260" y1="370" x2="260" y2="400" stroke="#374151" stroke-width="1.5" marker-end="url(#arr)"/>
  <line x1="500" y1="370" x2="500" y2="400" stroke="#374151" stroke-width="1.5" marker-end="url(#arr)"/>
  <line x1="740" y1="370" x2="740" y2="400" stroke="#374151" stroke-width="1.5" marker-end="url(#arr)"/>

  <!-- ====================================================== -->
  <!-- STAGE 2: Learned Sparse GAT Meta-Aggregation           -->
  <!-- ====================================================== -->
  <rect x="15" y="405" width="970" height="365" rx="10" fill="#FEF3C7" stroke="#F59E0B" stroke-width="1.5"/>
  <text x="500" y="425" text-anchor="middle" font-size="13" font-weight="bold" fill="#92400E">Stage 2: Learned Sparse GAT Meta-Aggregation</text>

  <!-- ====== Panel (c): GAT Architecture ====== -->
  <rect x="25" y="435" width="462" height="325" rx="8" fill="#FEF9C3" stroke="#FACC15" stroke-width="1.2"/>
  <text x="42" y="454" font-size="11" font-weight="bold" fill="#713F12">(c) Multi-Head GAT with Learned Graph</text>

  <!-- Learned Sparse Graph Visualization -->
  <text x="150" y="472" text-anchor="middle" font-size="9" font-weight="bold" fill="#4B5563">Learned Sparse Graph</text>
  <!-- 7 nodes in circle, center=(150, 515), r=38 -->
  <!-- Active edges (~10/21 shown) -->
  <g opacity="0.45">
    <line x1="150" y1="477" x2="181" y2="489" stroke="#D97706" stroke-width="1.2"/>
    <line x1="150" y1="477" x2="119" y2="489" stroke="#D97706" stroke-width="1.2"/>
    <line x1="181" y1="489" x2="187" y2="519" stroke="#D97706" stroke-width="1.2"/>
    <line x1="119" y1="489" x2="113" y2="519" stroke="#D97706" stroke-width="1.2"/>
    <line x1="187" y1="519" x2="173" y2="543" stroke="#D97706" stroke-width="1.2"/>
    <line x1="113" y1="519" x2="127" y2="543" stroke="#D97706" stroke-width="1.2"/>
    <line x1="119" y1="489" x2="181" y2="489" stroke="#D97706" stroke-width="1.2"/>
    <line x1="113" y1="519" x2="187" y2="519" stroke="#D97706" stroke-width="1.2"/>
    <line x1="127" y1="543" x2="173" y2="543" stroke="#D97706" stroke-width="1.2"/>
    <line x1="150" y1="477" x2="187" y2="519" stroke="#D97706" stroke-width="1.2"/>
  </g>
  <!-- Absent edges (very faint dashed) -->
  <g opacity="0.12">
    <line x1="150" y1="477" x2="173" y2="543" stroke="#D97706" stroke-width="0.5" stroke-dasharray="2,3"/>
    <line x1="150" y1="477" x2="127" y2="543" stroke="#D97706" stroke-width="0.5" stroke-dasharray="2,3"/>
    <line x1="150" y1="477" x2="113" y2="519" stroke="#D97706" stroke-width="0.5" stroke-dasharray="2,3"/>
    <line x1="181" y1="489" x2="127" y2="543" stroke="#D97706" stroke-width="0.5" stroke-dasharray="2,3"/>
    <line x1="181" y1="489" x2="113" y2="519" stroke="#D97706" stroke-width="0.5" stroke-dasharray="2,3"/>
    <line x1="119" y1="489" x2="173" y2="543" stroke="#D97706" stroke-width="0.5" stroke-dasharray="2,3"/>
    <line x1="119" y1="489" x2="187" y2="519" stroke="#D97706" stroke-width="0.5" stroke-dasharray="2,3"/>
  </g>
  <!-- Nodes -->
  <circle cx="150" cy="477" r="10" fill="#fff" stroke="#D97706" stroke-width="1.3"/>
  <text x="150" y="480" text-anchor="middle" font-size="6.5" font-weight="bold" fill="#1F2937">Geo</text>
  <circle cx="181" cy="489" r="10" fill="#fff" stroke="#D97706" stroke-width="1.3"/>
  <text x="181" y="492" text-anchor="middle" font-size="6.5" font-weight="bold" fill="#1F2937">Mac</text>
  <circle cx="187" cy="519" r="10" fill="#fff" stroke="#D97706" stroke-width="1.3"/>
  <text x="187" y="522" text-anchor="middle" font-size="6.5" font-weight="bold" fill="#1F2937">Mon</text>
  <circle cx="173" cy="543" r="10" fill="#fff" stroke="#D97706" stroke-width="1.3"/>
  <text x="173" y="546" text-anchor="middle" font-size="6.5" font-weight="bold" fill="#1F2937">Sup</text>
  <circle cx="127" cy="543" r="10" fill="#fff" stroke="#D97706" stroke-width="1.3"/>
  <text x="127" y="546" text-anchor="middle" font-size="6.5" font-weight="bold" fill="#1F2937">Tec</text>
  <circle cx="113" cy="519" r="10" fill="#fff" stroke="#D97706" stroke-width="1.3"/>
  <text x="113" y="522" text-anchor="middle" font-size="6.5" font-weight="bold" fill="#1F2937">Sen</text>
  <circle cx="119" cy="489" r="10" fill="#fff" stroke="#D97706" stroke-width="1.3"/>
  <text x="119" y="492" text-anchor="middle" font-size="6.5" font-weight="bold" fill="#1F2937">Crs</text>
  <!-- Annotation -->
  <text x="150" y="563" text-anchor="middle" font-size="8" fill="#92400E" font-style="italic">~16/42 active edges</text>

  <!-- Node Features input to GAT -->
  <rect x="305" y="465" width="140" height="22" rx="4" fill="#fff" stroke="#D97706" stroke-width="0.8"/>
  <text x="375" y="480" text-anchor="middle" font-size="8" fill="#713F12">Node + Context Features</text>
  <line x1="375" y1="487" x2="375" y2="498" stroke="#374151" stroke-width="1" marker-end="url(#arr)"/>

  <!-- GAT Layer 1 -->
  <rect x="280" y="502" width="190" height="28" rx="5" fill="#FDE68A" stroke="#D97706" stroke-width="1"/>
  <text x="375" y="520" text-anchor="middle" font-size="9" font-weight="bold" fill="#713F12">GAT Layer 1 (4 heads)</text>
  <!-- Skip connection -->
  <path d="M472,502 Q488,516 472,530" fill="none" stroke="#92400E" stroke-width="1" stroke-dasharray="3,2"/>
  <text x="478" y="520" font-size="6.5" fill="#92400E">skip</text>
  <!-- LayerNorm -->
  <rect x="310" y="535" width="120" height="18" rx="3" fill="#FEF3C7" stroke="#D97706" stroke-width="0.6"/>
  <text x="370" y="548" text-anchor="middle" font-size="7.5" fill="#713F12">LayerNorm</text>

  <!-- Arrow -->
  <line x1="370" y1="553" x2="370" y2="568" stroke="#374151" stroke-width="1" marker-end="url(#arr)"/>

  <!-- GAT Layer 2 -->
  <rect x="280" y="574" width="190" height="28" rx="5" fill="#FDE68A" stroke="#D97706" stroke-width="1"/>
  <text x="375" y="592" text-anchor="middle" font-size="9" font-weight="bold" fill="#713F12">GAT Layer 2 (4 heads)</text>
  <!-- Skip connection -->
  <path d="M472,574 Q488,588 472,602" fill="none" stroke="#92400E" stroke-width="1" stroke-dasharray="3,2"/>
  <text x="478" y="592" font-size="6.5" fill="#92400E">skip</text>
  <!-- LayerNorm -->
  <rect x="310" y="607" width="120" height="18" rx="3" fill="#FEF3C7" stroke="#D97706" stroke-width="0.6"/>
  <text x="370" y="620" text-anchor="middle" font-size="7.5" fill="#713F12">LayerNorm</text>

  <!-- Arrow -->
  <line x1="370" y1="625" x2="370" y2="642" stroke="#374151" stroke-width="1" marker-end="url(#arr)"/>

  <!-- Graph Readout -->
  <rect x="290" y="648" width="170" height="26" rx="5" fill="#fff" stroke="#D97706" stroke-width="1"/>
  <text x="375" y="665" text-anchor="middle" font-size="9" font-weight="bold" fill="#713F12">Graph Readout</text>

  <!-- Arrow from graph viz to GAT layers -->
  <line x1="200" y1="515" x2="278" y2="515" stroke="#374151" stroke-width="1" marker-end="url(#arr)"/>

  <!-- Arrow from readout to panel (d) -->
  <line x1="460" y1="661" x2="500" y2="661" stroke="#374151" stroke-width="1" stroke-dasharray="3,3" marker-end="url(#arr)"/>

  <!-- ====== Panel (d): Regime-Gated Output Head ====== -->
  <rect x="502" y="435" width="468" height="325" rx="8" fill="#EDE9FE" stroke="#A78BFA" stroke-width="1.2"/>
  <text x="520" y="454" font-size="11" font-weight="bold" fill="#5B21B6">(d) Regime-Gated Output Head</text>

  <!-- Input label -->
  <text x="735" y="473" text-anchor="middle" font-size="8" fill="#6B7280">from graph readout</text>

  <!-- Three parallel paths -->
  <!-- Base Head -->
  <rect x="525" y="482" width="130" height="65" rx="5" fill="#fff" stroke="#A78BFA" stroke-width="1"/>
  <text x="590" y="499" text-anchor="middle" font-size="9" font-weight="bold" fill="#5B21B6">Base Head</text>
  <line x1="555" y1="506" x2="625" y2="506" stroke="#DDD6FE" stroke-width="0.5"/>
  <rect x="555" y="514" width="70" height="16" rx="8" fill="#DDD6FE"/>
  <text x="590" y="526" text-anchor="middle" font-size="7.5" fill="#5B21B6">Softmax</text>
  <text x="590" y="542" text-anchor="middle" font-size="8" fill="#4B5563" font-style="italic">w_base</text>

  <!-- Regime Head -->
  <rect x="670" y="482" width="130" height="65" rx="5" fill="#fff" stroke="#A78BFA" stroke-width="1"/>
  <text x="735" y="499" text-anchor="middle" font-size="9" font-weight="bold" fill="#5B21B6">Regime Head</text>
  <line x1="700" y1="506" x2="770" y2="506" stroke="#DDD6FE" stroke-width="0.5"/>
  <rect x="700" y="514" width="70" height="16" rx="8" fill="#DDD6FE"/>
  <text x="735" y="526" text-anchor="middle" font-size="7.5" fill="#5B21B6">Softmax</text>
  <text x="735" y="542" text-anchor="middle" font-size="8" fill="#4B5563" font-style="italic">w_regime</text>

  <!-- Regime Gate -->
  <rect x="815" y="482" width="130" height="65" rx="5" fill="#fff" stroke="#7C3AED" stroke-width="1"/>
  <text x="880" y="499" text-anchor="middle" font-size="9" font-weight="bold" fill="#5B21B6">Regime Gate</text>
  <line x1="845" y1="506" x2="915" y2="506" stroke="#DDD6FE" stroke-width="0.5"/>
  <rect x="845" y="514" width="70" height="16" rx="8" fill="#C4B5FD"/>
  <text x="880" y="526" text-anchor="middle" font-size="7.5" fill="#5B21B6">Sigmoid</text>
  <text x="880" y="542" text-anchor="middle" font-size="8" fill="#4B5563" font-style="italic">g</text>

  <!-- Regime features input -->
  <rect x="830" y="557" width="100" height="18" rx="3" fill="#EDE9FE" stroke="#A78BFA" stroke-width="0.6"/>
  <text x="880" y="569" text-anchor="middle" font-size="7" fill="#6B7280">regime features</text>
  <line x1="880" y1="557" x2="880" y2="547" stroke="#6B7280" stroke-width="0.6" marker-end="url(#arr)"/>

  <!-- Arrows down from three heads -->
  <line x1="590" y1="547" x2="590" y2="590" stroke="#374151" stroke-width="0.8" marker-end="url(#arr)"/>
  <line x1="735" y1="547" x2="735" y2="590" stroke="#374151" stroke-width="0.8" marker-end="url(#arr)"/>
  <line x1="880" y1="547" x2="810" y2="590" stroke="#374151" stroke-width="0.8" marker-end="url(#arr)"/>

  <!-- Blend formula box -->
  <rect x="545" y="595" width="280" height="28" rx="5" fill="#DDD6FE" stroke="#A78BFA" stroke-width="1"/>
  <text x="685" y="613" text-anchor="middle" font-size="9" fill="#5B21B6" font-weight="bold">w = (1 - g) w_base + g w_regime</text>

  <!-- Arrow down -->
  <line x1="685" y1="623" x2="685" y2="640" stroke="#374151" stroke-width="1" marker-end="url(#arr)"/>

  <!-- Weighted combination -->
  <rect x="545" y="646" width="280" height="32" rx="5" fill="#fff" stroke="#A78BFA" stroke-width="1"/>
  <text x="685" y="660" text-anchor="middle" font-size="8.5" fill="#4B5563">w_1 debate_vol + w_2 single_vol</text>
  <text x="685" y="673" text-anchor="middle" font-size="8" fill="#6B7280">+ residual correction</text>

  <!-- Base predictions input -->
  <rect x="850" y="648" width="100" height="28" rx="4" fill="#065F46"/>
  <text x="900" y="662" text-anchor="middle" font-size="7.5" font-weight="bold" fill="#fff">Base Preds</text>
  <text x="900" y="673" text-anchor="middle" font-size="6.5" fill="#ccc">[debate, single]</text>
  <line x1="850" y1="662" x2="827" y2="662" stroke="#374151" stroke-width="0.8" marker-end="url(#arr)"/>

  <!-- Arrow down to output -->
  <line x1="685" y1="678" x2="685" y2="700" stroke="#374151" stroke-width="1.5" marker-end="url(#arr)"/>

  <!-- Final Output -->
  <rect x="610" y="705" width="200" height="36" rx="8" fill="#059669"/>
  <text x="710" y="722" text-anchor="middle" font-size="11" font-weight="bold" fill="#fff">Predicted Volatility</text>
  <text x="710" y="735" text-anchor="middle" font-size="8" fill="#D1FAE5">forward-looking 20d RV</text>

</svg>